<svg width="44" height="45" viewBox="0 0 44 45" fill="none" xmlns="http://www.w3.org/2000/svg">
<path fill-rule="evenodd" clip-rule="evenodd" d="M13.4933 40.1297C13.5008 41.1084 12.917 41.9949 12.015 42.3747C11.1129 42.7544 10.0709 42.5523 9.37615 41.8629C8.68143 41.1735 8.47133 40.1331 8.84412 39.2281C9.21691 38.3232 10.0989 37.7326 11.0776 37.7326C12.4064 37.7282 13.4875 38.801 13.4933 40.1297V40.1297Z" stroke="#6B6565" stroke-width="3.96887" stroke-linecap="round" stroke-linejoin="round"/>
<path fill-rule="evenodd" clip-rule="evenodd" d="M27.9876 40.1295C27.9951 41.1082 27.4113 41.9947 26.5092 42.3745C25.6072 42.7542 24.5651 42.5522 23.8704 41.8628C23.1757 41.1734 22.9656 40.1329 23.3384 39.2279C23.7112 38.323 24.5932 37.7324 25.5719 37.7324C26.9006 37.728 27.9817 38.8008 27.9876 40.1295V40.1295Z" stroke="#6B6565" stroke-width="3.96887" stroke-linecap="round" stroke-linejoin="round"/>
<path d="M7.51028 10.4288V8.44437C6.41431 8.44437 5.52584 9.33283 5.52584 10.4288H7.51028ZM41.0652 12.7572L43.0335 12.5042C43.0294 12.4728 43.0246 12.4415 43.0191 12.4103L41.0652 12.7572ZM40.8562 14.4505L39.0085 13.7265C38.9972 13.7555 38.9865 13.7847 38.9766 13.8141L40.8562 14.4505ZM39.1443 19.5068L40.9849 20.2485C40.9989 20.2137 41.0119 20.1786 41.024 20.1432L39.1443 19.5068ZM36.0407 27.2089L37.8129 28.1019C37.8378 28.0524 37.8606 28.002 37.8813 27.9506L36.0407 27.2089ZM13.953 32.8023V30.8178L13.9448 30.8179L13.953 32.8023ZM9.40731 30.9408L8.00961 32.3495H8.00961L9.40731 30.9408ZM7.51028 26.4099H5.52583L5.52586 26.4172L7.51028 26.4099ZM5.52607 10.429C5.52607 11.525 6.41454 12.4135 7.51051 12.4135C8.60648 12.4135 9.49494 11.525 9.49494 10.429H5.52607ZM7.51051 4.42555H9.49494C9.49494 4.41901 9.49491 4.41247 9.49485 4.40593L7.51051 4.42555ZM5.89917 2.83803V4.82249L5.90909 4.82244L5.89917 2.83803ZM2.21877 0.85359C1.12279 0.85359 0.23433 1.74205 0.23433 2.83803C0.23433 3.934 1.12279 4.82246 2.21877 4.82246V0.85359ZM7.51028 12.4132H34.6913V8.44437H7.51028V12.4132ZM34.6913 12.4132C36.4962 12.4132 37.6313 12.3624 38.478 12.5554C38.8387 12.6377 38.9548 12.7304 38.9805 12.7543C38.9921 12.7651 39.0071 12.7811 39.0262 12.8185C39.0473 12.8595 39.0833 12.9461 39.1114 13.1041L43.0191 12.4103C42.8413 11.4089 42.4125 10.5244 41.6797 9.84462C40.9728 9.18884 40.1309 8.86157 39.3602 8.68584C37.944 8.36295 36.1224 8.44437 34.6913 8.44437V12.4132ZM39.097 13.0101C39.1281 13.2526 39.0977 13.499 39.0085 13.7265L42.7039 15.1745C43.0363 14.3262 43.1496 13.4079 43.0335 12.5042L39.097 13.0101ZM38.9766 13.8141L37.2647 18.8704L41.024 20.1432L42.7358 15.0869L38.9766 13.8141ZM37.3037 18.7651L34.2001 26.4672L37.8813 27.9506L40.9849 20.2485L37.3037 18.7651ZM34.2685 26.316C33.6572 27.5293 33.2045 28.4178 32.8035 29.1018C32.4013 29.7878 32.1213 30.1424 31.9005 30.3467C31.6166 30.6092 31.275 30.8179 29.598 30.8179V34.7867C31.4798 34.7867 33.1516 34.5958 34.5955 33.2603C35.2385 32.6655 35.7511 31.9214 36.2273 31.1092C36.7046 30.295 37.2164 29.2857 37.8129 28.1019L34.2685 26.316ZM29.598 30.8179H13.953V34.7867H29.598V30.8179ZM13.9448 30.8179C12.7691 30.8227 11.6396 30.3602 10.805 29.5321L8.00961 32.3495C9.59164 33.9192 11.7326 34.7959 13.9612 34.7867L13.9448 30.8179ZM10.805 29.5321C9.97041 28.704 9.49905 27.5782 9.4947 26.4025L5.52586 26.4172C5.53411 28.6458 6.42758 30.7798 8.00961 32.3495L10.805 29.5321ZM9.49471 26.4099V10.4288H5.52584V26.4099H9.49471ZM9.49494 10.429V4.42555H5.52607V10.429H9.49494ZM9.49485 4.40593C9.47532 2.43136 7.86389 0.843743 5.88925 0.853615L5.90909 4.82244C5.69938 4.82348 5.52824 4.65487 5.52617 4.44517L9.49485 4.40593ZM5.89917 0.85359H2.21877V4.82246H5.89917V0.85359Z" fill="#6B6565"/>
</svg>
