<svg width="17" height="23" viewBox="0 0 17 23" fill="none" xmlns="http://www.w3.org/2000/svg">
<path fill-rule="evenodd" clip-rule="evenodd" d="M14.5768 7.12518H2.42304C1.75213 7.12518 1.20825 7.66906 1.20825 8.33997V18.0627C1.20825 20.0762 2.84055 21.7085 4.85409 21.7085H12.1458C13.1127 21.7085 14.04 21.3244 14.7237 20.6407C15.4075 19.9569 15.7916 19.0296 15.7916 18.0627V8.33997C15.7916 7.66906 15.2477 7.12518 14.5768 7.12518Z" stroke="#FF5252" stroke-width="1.5" stroke-linecap="round" stroke-linejoin="round"/>
<path fill-rule="evenodd" clip-rule="evenodd" d="M12.875 4.20848L12.7204 3.90077C11.9211 2.30178 10.2869 1.29169 8.49927 1.29169C6.71163 1.29169 5.07744 2.30178 4.27812 3.90077L4.125 4.20848H12.875Z" stroke="#FF5252" stroke-width="1.5" stroke-linecap="round" stroke-linejoin="round"/>
<path d="M6.81888 11.9858C6.81888 11.5716 6.48309 11.2358 6.06888 11.2358C5.65466 11.2358 5.31888 11.5716 5.31888 11.9858H6.81888ZM5.31888 16.8465C5.31888 17.2607 5.65466 17.5965 6.06888 17.5965C6.48309 17.5965 6.81888 17.2607 6.81888 16.8465H5.31888ZM11.681 11.9858C11.681 11.5716 11.3452 11.2358 10.931 11.2358C10.5167 11.2358 10.181 11.5716 10.181 11.9858H11.681ZM10.181 16.8465C10.181 17.2607 10.5167 17.5965 10.931 17.5965C11.3452 17.5965 11.681 17.2607 11.681 16.8465H10.181ZM12.8749 3.45856C12.4607 3.45856 12.1249 3.79434 12.1249 4.20856C12.1249 4.62277 12.4607 4.95856 12.8749 4.95856V3.45856ZM15.7916 4.95856C16.2058 4.95856 16.5416 4.62277 16.5416 4.20856C16.5416 3.79434 16.2058 3.45856 15.7916 3.45856V4.95856ZM4.12492 4.95856C4.53913 4.95856 4.87492 4.62277 4.87492 4.20856C4.87492 3.79434 4.53913 3.45856 4.12492 3.45856V4.95856ZM1.20825 3.45856C0.794038 3.45856 0.458252 3.79434 0.458252 4.20856C0.458252 4.62277 0.794038 4.95856 1.20825 4.95856V3.45856ZM5.31888 11.9858V16.8465H6.81888V11.9858H5.31888ZM10.181 11.9858V16.8465H11.681V11.9858H10.181ZM12.8749 4.95856H15.7916V3.45856H12.8749V4.95856ZM4.12492 3.45856H1.20825V4.95856H4.12492V3.45856Z" fill="#FF5252"/>
</svg>
